<svg width="95" height="94" xmlns="http://www.w3.org/2000/svg" xmlns:xlink="http://www.w3.org/1999/xlink" overflow="hidden"><defs><clipPath id="clip0"><rect x="30" y="189" width="95" height="94"/></clipPath></defs><g clip-path="url(#clip0)" transform="translate(-30 -189)"><path d="M45.776 19.0242C45.3697 19.0242 44.9673 19.0242 44.5736 19.0086 29.3432 19.318 17.2455 31.9123 17.5486 47.143 17.5527 50.1217 18.0151 53.0821 18.9195 55.9202 19.7943 58.541 21.1093 60.9937 22.8077 63.1729 15.743 71.2158 14.0589 76.6727 13.7201 79.3869 13.6532 79.9233 14.0336 80.4125 14.57 80.4797 14.609 80.485 14.6482 80.4876 14.6875 80.4875 15.1808 80.4868 15.5967 80.1193 15.6579 79.6297 15.9075 77.6362 17.2607 72.6003 24.0307 64.7905L24.3088 65.1567C28.055 70.2301 33.5526 73.7307 39.7346 74.9787 41.3082 75.2713 42.9054 75.4185 44.5061 75.4184L44.6706 75.4184C49.3647 75.4179 53.9694 74.1347 57.9872 71.7073 78.6682 59.7292 81.2708 37.6832 81.2708 12.925 81.2708 12.925 59.9984 19.0242 45.776 19.0242ZM56.9777 70.031C53.2643 72.2736 49.0086 73.4585 44.6706 73.4581L44.5061 73.4581C43.0254 73.4575 41.5479 73.3215 40.092 73.0517 34.3861 71.8993 29.3148 68.6612 25.8686 63.9699L25.3575 63.2972C30.7997 57.3517 39.2646 49.9375 52.4393 41.1563 52.8892 40.8562 53.0106 40.2482 52.7105 39.7982 52.4104 39.3483 51.8023 39.2269 51.3524 39.527 38.305 48.2249 29.75 55.6294 24.1482 61.6875 22.687 59.7634 21.5499 57.6136 20.7818 55.3229 19.9363 52.6632 19.507 49.8887 19.5089 47.0979 19.2432 32.9702 30.4491 21.2863 44.5756 20.962 44.9673 20.9718 45.3756 20.9767 45.7829 20.9767 57.3733 20.9767 73.2074 17.1031 79.3076 15.4875 79.0609 41.3972 74.9924 59.5989 56.9777 70.031Z" fill="#026495" transform="matrix(1.01064 0 0 1 30 189)"/></g></svg>