<svg width="95" height="95" xmlns="http://www.w3.org/2000/svg" xmlns:xlink="http://www.w3.org/1999/xlink" overflow="hidden"><defs><clipPath id="clip0"><rect x="30" y="320" width="95" height="95"/></clipPath></defs><g clip-path="url(#clip0)" transform="translate(-30 -320)"><path d="M122.13 359.286 110.948 340.682 109.958 339 108.276 340.089 100.755 344.74C99.8646 345.234 99.1719 346.125 98.875 347.115 98.6771 347.807 98.6771 348.599 98.974 349.292 96.8958 349.984 94.8177 350.38 92.6406 350.38 89.6719 350.281 86.7031 349.786 83.8333 348.896 82.4479 348.5 80.9635 348.203 79.4792 347.906L79.2812 347.906 79.2812 347.906C79.1823 347.906 79.0833 347.906 79.0833 347.906L78.8854 347.906 78.6875 347.906C78.4896 347.906 78.3906 347.906 78.1927 347.906L78.1927 347.906C76.5104 347.906 74.8281 348.599 73.7396 349.885L72.9479 350.776C71.6615 350.281 70.276 349.984 68.8906 349.984 68.5938 349.984 68.3958 349.984 68.099 349.984 67.5052 349.984 67.0104 350.083 66.4167 350.083 65.1302 350.182 63.8438 350.281 62.5573 350.281 60.3802 350.38 58.2031 349.885 56.224 348.995 56.3229 348.401 56.3229 347.807 56.224 347.115 55.9271 346.125 55.2344 345.234 54.3438 344.74L46.9219 340.089 45.2396 339 44.25 340.682 32.8698 359.286 31.8802 360.969 33.5625 361.958 41.1823 366.609C42.5677 367.5 44.25 367.401 45.5365 366.411L51.9688 373.932 52.0677 374.13 52.2656 374.229 52.2656 374.229 50.8802 375.812C49.099 377.891 49.2969 380.958 51.276 382.74L51.276 382.74 51.276 382.74C52.1667 383.531 53.2552 383.927 54.4427 383.927 54.6406 383.927 54.8385 383.927 55.0365 383.927 55.7292 383.828 56.3229 383.63 56.9167 383.234 57.0156 384.422 57.6094 385.609 58.5 386.401L58.5 386.401 58.5 386.401C59.3906 387.193 60.4792 387.589 61.6667 387.589 61.7656 387.589 61.9635 387.589 62.0625 387.589 62.5573 387.589 63.0521 387.49 63.5469 387.292 63.6458 388.38 64.1406 389.469 65.0312 390.161L65.0312 390.161 65.0312 390.161C65.8229 390.854 66.8125 391.25 67.8021 391.25 68 391.25 68.099 391.25 68.2969 391.25 68.9896 391.25 69.5833 390.953 70.1771 390.656 70.375 391.349 70.7708 392.042 71.3646 392.536 72.1562 393.229 73.1458 393.625 74.2344 393.526L74.4323 393.526 74.6302 393.526C75.224 393.427 75.8177 393.13 76.3125 392.833L76.4115 392.932 77.7969 394.021 77.8958 394.12 77.9948 394.219C78.8854 394.812 79.974 395.109 80.9635 395.109 81.1615 395.109 81.3594 395.109 81.5573 395.109 84.0312 394.911 86.0104 393.13 86.7031 390.755 88.8802 390.359 90.6615 388.677 91.2552 386.5 93.5312 386.005 95.3125 384.323 95.8073 382.146 95.9062 382.146 96.1042 382.146 96.2031 382.146 99.3698 381.849 101.745 379.078 101.547 375.911 101.547 375.714 101.547 375.417 101.547 375.219L102.339 374.229 109.167 366.312C110.453 367.401 112.234 367.401 113.719 366.51L121.339 361.859 123.021 360.87 122.13 359.286ZM42.1719 364.927 34.5521 360.276 45.8333 341.672 53.3542 346.323C54.1458 346.719 54.5417 347.708 54.2448 348.5L53.651 349.49 45.0417 363.74 44.4479 364.63C44.151 364.927 43.6562 365.125 43.1615 365.125 42.8646 365.224 42.4688 365.125 42.1719 364.927ZM54.8385 381.948C54.7396 381.948 54.6406 381.948 54.5417 381.948 52.9583 381.948 51.6719 380.562 51.6719 378.979 51.6719 378.286 51.9688 377.594 52.3646 377.099L57.6094 371.161C58.2031 370.568 58.9948 370.172 59.8854 370.172 60.5781 370.172 61.2708 370.469 61.7656 370.865 62.9531 371.953 63.151 373.833 62.0625 375.021L56.8177 380.958C56.3229 381.552 55.6302 381.849 54.8385 381.948ZM62.1615 385.708C62.0625 385.708 61.9635 385.708 61.8646 385.708 60.2812 385.708 58.9948 384.323 58.9948 382.74 58.9948 382.047 59.2917 381.354 59.6875 380.859L64.2396 375.615C64.8333 375.021 65.625 374.625 66.5156 374.625 67.2083 374.625 67.901 374.922 68.3958 375.318 69.5833 376.406 69.7812 378.286 68.6927 379.474L64.1406 384.719C63.6458 385.312 62.9531 385.708 62.1615 385.708L62.1615 385.708ZM68.3958 389.37C68.2969 389.37 68.1979 389.37 68.099 389.37 67.5052 389.37 67.0104 389.172 66.5156 388.776 65.526 387.885 65.4271 386.302 66.3177 385.312L70.8698 380.068C71.3646 379.573 72.0573 379.276 72.75 379.276 73.3438 379.276 73.9375 379.474 74.3333 379.87 75.3229 380.76 75.4219 382.344 74.5312 383.333L69.9792 388.578C69.5833 389.073 68.9896 389.37 68.3958 389.37L68.3958 389.37ZM74.4323 391.745C73.9375 391.745 73.3438 391.646 72.9479 391.25 72.1562 390.557 72.0573 389.271 72.75 388.479L76.6094 384.026C77.0052 383.63 77.5 383.333 78.0938 383.333 78.5885 383.333 78.9844 383.531 79.3802 383.828 80.1719 384.521 80.2708 385.807 79.5781 386.599L75.7188 391.052C75.4219 391.448 74.9271 391.646 74.4323 391.745L74.4323 391.745ZM96.2031 380.167C96.1042 380.167 95.9062 380.167 95.8073 380.167 95.2135 380.167 94.6198 379.969 94.125 379.771 94.125 379.969 94.224 380.167 94.224 380.365 94.4219 382.542 92.8385 384.422 90.6615 384.62 90.6615 384.62 90.6615 384.62 90.6615 384.62 90.3646 384.62 89.9688 384.62 89.6719 384.521L89.6719 384.62C89.8698 386.797 88.2865 388.677 86.1094 388.875 86.1094 388.875 86.1094 388.875 86.1094 388.875 85.8125 388.875 85.4167 388.875 85.1198 388.776L85.1198 388.875C85.3177 391.052 83.7344 392.932 81.5573 393.13 81.5573 393.13 81.5573 393.13 81.5573 393.13 81.4583 393.13 81.3594 393.13 81.2604 393.13 80.5677 393.13 79.875 392.932 79.1823 392.536L77.8958 391.547 81.0625 387.885C82.4479 386.203 82.25 383.729 80.6667 382.344 79.974 381.75 79.0833 381.354 78.0938 381.354 77.7969 381.354 77.401 381.354 77.1042 381.453 77.0052 380.266 76.5104 379.177 75.6198 378.385 74.8281 377.693 73.7396 377.297 72.651 377.297L72.651 377.297C72.1562 377.297 71.7604 377.396 71.2656 377.495 71.2656 376.109 70.6719 374.823 69.5833 373.833 68.6927 373.042 67.6042 372.547 66.4167 372.646L66.4167 372.646C65.8229 372.646 65.2292 372.745 64.6354 372.943 64.5365 371.557 63.9427 370.271 62.9531 369.38 62.0625 368.589 60.974 368.094 59.7865 368.193L59.7865 368.193C58.401 368.193 57.0156 368.786 56.026 369.875L53.4531 372.844 53.3542 372.745 46.625 364.927 55.2344 350.677C57.4115 351.766 59.8854 352.26 62.3594 352.161 64.3385 352.161 66.3177 351.964 68.099 351.766 68.2969 351.766 68.4948 351.766 68.6927 351.766 69.5833 351.766 70.474 351.865 71.2656 352.161L65.8229 358.594C64.7344 359.781 64.2396 361.365 64.3385 362.948 64.4375 364.531 65.2292 365.917 66.4167 367.005L66.4167 367.005 66.4167 367.005C67.5052 367.896 68.8906 368.391 70.276 368.391 70.474 368.391 70.5729 368.391 70.7708 368.391 72.3542 368.292 73.8385 367.5 74.8281 366.312L81.5573 358.594 81.5573 358.594 82.6458 359.583 98.5781 373.24C99.2708 373.833 99.6667 374.823 99.6667 375.714 99.6667 375.812 99.6667 376.109 99.6667 376.109 99.8646 378.188 98.2812 379.969 96.2031 380.167 96.2031 380.167 96.2031 380.167 96.2031 380.167ZM101.052 372.943C100.755 372.448 100.359 372.052 99.9635 371.656L81.4583 355.724 73.3438 365.026C72.651 365.818 71.7604 366.312 70.6719 366.411 70.5729 366.411 70.474 366.411 70.375 366.411 69.3854 366.411 68.4948 366.016 67.7031 365.422 66.0208 364.036 65.8229 361.661 67.2083 359.979 67.2083 359.979 67.3073 359.88 67.3073 359.88L75.125 350.974C75.9167 350.083 77.0052 349.688 78.0938 349.688 78.1927 349.688 78.2917 349.688 78.4896 349.688 78.6875 349.688 78.7865 349.786 78.9844 349.786 83.5365 350.677 87.6927 352.26 92.5417 352.26 95.0156 352.26 97.4896 351.865 99.7656 350.974L105.505 360.276 108.177 364.729 101.052 372.943ZM112.828 364.927C112.531 365.125 112.135 365.224 111.839 365.224 111.344 365.224 110.849 365.026 110.453 364.63L109.859 363.641 107.188 359.286 100.953 348.995C100.359 348.104 100.656 347.016 101.448 346.422 101.547 346.422 101.547 346.323 101.646 346.323L109.266 341.672 120.448 360.276 112.828 364.927Z" fill="#026495"/></g></svg>